<svg xmlns="http://www.w3.org/2000/svg" height="512pt" version="1.1" viewBox="0 0 512 512" width="512pt">
<g id="surface1">
<path d="M 464.867188 208.867188 C 457.027344 208.867188 449.640625 210.800781 443.132812 214.199219 C 438.230469 192.246094 429.5625 171.703125 417.832031 153.285156 C 424.996094 151.042969 431.558594 147.097656 437.019531 141.636719 C 455.398438 123.261719 455.398438 93.359375 437.019531 74.980469 C 428.117188 66.078125 416.28125 61.175781 403.691406 61.175781 C 391.101562 61.175781 379.265625 66.078125 370.363281 74.980469 C 364.804688 80.542969 360.9375 87.15625 358.742188 94.1875 C 340.320312 82.449219 319.765625 73.773438 297.800781 68.871094 C 301.199219 62.359375 303.132812 54.972656 303.132812 47.136719 C 303.132812 21.144531 281.988281 0 256 0 C 230.011719 0 208.867188 21.144531 208.867188 47.132812 C 208.867188 54.972656 210.800781 62.359375 214.199219 68.867188 C 192.246094 73.769531 171.703125 82.4375 153.289062 94.167969 C 151.046875 87.003906 147.097656 80.4375 141.640625 74.980469 C 132.738281 66.078125 120.902344 61.175781 108.3125 61.175781 C 95.722656 61.175781 83.886719 66.078125 74.984375 74.980469 C 66.078125 83.882812 61.175781 95.71875 61.175781 108.308594 C 61.175781 120.898438 66.078125 132.734375 74.984375 141.636719 C 80.441406 147.09375 87.007812 151.042969 94.167969 153.285156 C 82.4375 171.703125 73.769531 192.246094 68.867188 214.199219 C 62.359375 210.800781 54.96875 208.867188 47.132812 208.867188 C 21.144531 208.867188 0 230.011719 0 256 C 0 281.988281 21.144531 303.132812 47.132812 303.132812 C 54.96875 303.132812 62.359375 301.199219 68.867188 297.800781 C 73.769531 319.753906 82.4375 340.296875 94.167969 358.714844 C 87.007812 360.957031 80.441406 364.902344 74.980469 370.363281 C 66.078125 379.265625 61.175781 391.101562 61.175781 403.691406 C 61.175781 416.28125 66.078125 428.117188 74.980469 437.019531 C 83.882812 445.921875 95.71875 450.824219 108.308594 450.824219 C 120.898438 450.824219 132.734375 445.921875 141.636719 437.019531 C 147.097656 431.558594 151.042969 424.996094 153.285156 417.832031 C 171.703125 429.5625 192.246094 438.230469 214.199219 443.128906 C 210.800781 449.640625 208.867188 457.027344 208.867188 464.867188 C 208.867188 490.855469 230.011719 512 256 512 C 281.988281 512 303.132812 490.855469 303.132812 464.867188 C 303.132812 457.03125 301.199219 449.640625 297.800781 443.132812 C 319.753906 438.230469 340.296875 429.5625 358.714844 417.832031 C 360.957031 424.992188 364.902344 431.558594 370.363281 437.019531 C 379.261719 445.921875 391.097656 450.824219 403.691406 450.824219 C 416.277344 450.824219 428.117188 445.921875 437.019531 437.019531 C 455.398438 418.640625 455.398438 388.738281 437.019531 370.363281 C 431.5625 364.902344 424.996094 360.957031 417.832031 358.714844 C 429.5625 340.296875 438.230469 319.753906 443.132812 297.800781 C 449.640625 301.199219 457.027344 303.132812 464.867188 303.132812 C 490.855469 303.132812 512 281.988281 512 256 C 512 230.011719 490.855469 208.867188 464.867188 208.867188 Z M 256 417.734375 C 166.820312 417.734375 94.265625 345.179688 94.265625 256 C 94.265625 166.820312 166.820312 94.265625 256 94.265625 C 345.179688 94.265625 417.734375 166.820312 417.734375 256 C 417.734375 345.179688 345.179688 417.734375 256 417.734375 Z M 391.574219 96.191406 C 394.8125 92.957031 399.113281 91.175781 403.691406 91.175781 C 408.269531 91.175781 412.570312 92.957031 415.804688 96.191406 C 422.484375 102.875 422.484375 113.742188 415.804688 120.421875 C 412.570312 123.660156 408.265625 125.441406 403.6875 125.441406 C 399.113281 125.441406 394.8125 123.660156 391.574219 120.425781 C 384.898438 113.742188 384.898438 102.875 391.574219 96.191406 Z M 238.867188 47.132812 C 238.867188 37.6875 246.550781 30 256 30 C 265.445312 30 273.132812 37.6875 273.132812 47.132812 C 273.132812 56.582031 265.445312 64.265625 256 64.265625 C 246.550781 64.265625 238.867188 56.582031 238.867188 47.132812 Z M 96.195312 96.191406 C 99.433594 92.957031 103.734375 91.175781 108.3125 91.175781 C 112.886719 91.175781 117.191406 92.957031 120.425781 96.191406 C 123.660156 99.429688 125.445312 103.730469 125.445312 108.308594 C 125.445312 112.882812 123.660156 117.1875 120.425781 120.421875 C 117.1875 123.660156 112.886719 125.441406 108.3125 125.441406 C 103.734375 125.441406 99.433594 123.660156 96.195312 120.421875 C 92.960938 117.1875 91.175781 112.882812 91.175781 108.308594 C 91.175781 103.730469 92.960938 99.429688 96.195312 96.191406 Z M 47.132812 273.132812 C 37.6875 273.132812 30 265.445312 30 256 C 30 246.554688 37.6875 238.867188 47.132812 238.867188 C 56.582031 238.867188 64.265625 246.554688 64.265625 256 C 64.265625 265.445312 56.582031 273.132812 47.132812 273.132812 Z M 120.425781 415.808594 C 117.1875 419.042969 112.886719 420.824219 108.308594 420.824219 C 103.734375 420.824219 99.429688 419.046875 96.195312 415.808594 C 92.960938 412.570312 91.175781 408.269531 91.175781 403.691406 C 91.175781 399.117188 92.957031 394.816406 96.195312 391.578125 C 99.429688 388.34375 103.734375 386.558594 108.308594 386.558594 C 112.886719 386.558594 117.1875 388.34375 120.425781 391.582031 C 123.660156 394.816406 125.445312 399.117188 125.445312 403.695312 C 125.441406 408.269531 123.660156 412.570312 120.425781 415.808594 Z M 273.132812 464.867188 C 273.132812 474.3125 265.445312 482 256 482 C 246.550781 482 238.867188 474.316406 238.867188 464.867188 C 238.867188 455.421875 246.550781 447.734375 256 447.734375 C 265.445312 447.734375 273.132812 455.421875 273.132812 464.867188 Z M 415.808594 415.808594 C 412.570312 419.042969 408.265625 420.824219 403.691406 420.824219 C 399.113281 420.824219 394.8125 419.046875 391.578125 415.808594 C 388.339844 412.570312 386.558594 408.269531 386.558594 403.691406 C 386.558594 399.117188 388.339844 394.816406 391.578125 391.578125 C 394.8125 388.339844 399.117188 386.558594 403.691406 386.558594 C 408.269531 386.558594 412.570312 388.339844 415.808594 391.574219 C 422.488281 398.257812 422.488281 409.128906 415.808594 415.808594 Z M 464.867188 273.132812 C 455.417969 273.132812 447.734375 265.449219 447.734375 256 C 447.734375 246.550781 455.417969 238.867188 464.867188 238.867188 C 474.3125 238.867188 482 246.554688 482 256 C 482 265.445312 474.3125 273.132812 464.867188 273.132812 Z M 464.867188 273.132812 " style=" stroke:none;fill-rule:nonzero;fill:rgb(0%,0%,0%);fill-opacity:1;" />
<path d="M 347.152344 167 C 346.835938 166.609375 346.496094 166.234375 346.132812 165.871094 C 345.769531 165.507812 345.390625 165.164062 345 164.847656 C 322.011719 142.394531 290.597656 128.535156 256 128.535156 C 221.394531 128.535156 189.976562 142.402344 166.984375 164.859375 C 166.601562 165.175781 166.226562 165.511719 165.871094 165.867188 C 165.511719 166.226562 165.175781 166.597656 164.863281 166.980469 C 142.402344 189.972656 128.53125 221.394531 128.53125 256 C 128.53125 290.59375 142.390625 322.003906 164.835938 344.992188 C 165.15625 345.386719 165.5 345.765625 165.867188 346.136719 C 166.234375 346.503906 166.617188 346.847656 167.011719 347.167969 C 190 369.613281 221.410156 383.46875 256 383.46875 C 290.585938 383.46875 321.992188 369.613281 344.980469 347.171875 C 345.378906 346.851562 345.761719 346.503906 346.132812 346.136719 C 346.503906 345.765625 346.847656 345.382812 347.171875 344.984375 C 369.613281 321.996094 383.464844 290.589844 383.464844 256.003906 C 383.464844 221.402344 369.605469 189.988281 347.152344 167 Z M 334.675781 313.460938 L 298.191406 276.976562 C 299.148438 275.054688 299.976562 273.058594 300.671875 271 L 352.3125 271 C 349.875 286.699219 343.675781 301.167969 334.675781 313.460938 Z M 159.6875 271 L 211.328125 271 C 212.023438 273.058594 212.851562 275.058594 213.808594 276.980469 L 177.324219 313.460938 C 168.320312 301.167969 162.121094 286.699219 159.6875 271 Z M 177.324219 198.535156 L 213.808594 235.019531 C 212.847656 236.941406 212.019531 238.941406 211.328125 241 L 159.6875 241 C 162.121094 225.300781 168.320312 210.832031 177.324219 198.535156 Z M 256 273.132812 C 246.550781 273.132812 238.867188 265.449219 238.867188 256 C 238.867188 246.550781 246.550781 238.867188 256 238.867188 C 265.445312 238.867188 273.132812 246.554688 273.132812 256 C 273.132812 265.445312 265.445312 273.132812 256 273.132812 Z M 276.976562 213.8125 C 275.054688 212.851562 273.058594 212.023438 271 211.328125 L 271 159.6875 C 286.699219 162.125 301.167969 168.324219 313.464844 177.328125 Z M 241 211.328125 C 238.941406 212.019531 236.945312 212.847656 235.023438 213.808594 L 198.539062 177.324219 C 210.832031 168.320312 225.300781 162.125 241 159.6875 Z M 235.023438 298.191406 C 236.945312 299.148438 238.941406 299.980469 241 300.671875 L 241 352.3125 C 225.300781 349.878906 210.832031 343.679688 198.539062 334.675781 Z M 271 300.671875 C 273.058594 299.980469 275.054688 299.148438 276.976562 298.191406 L 313.460938 334.675781 C 301.167969 343.675781 286.699219 349.875 271 352.3125 Z M 300.671875 241 C 299.976562 238.941406 299.148438 236.945312 298.191406 235.023438 L 334.675781 198.539062 C 343.675781 210.832031 349.875 225.300781 352.3125 241 Z M 300.671875 241 " style=" stroke:none;fill-rule:nonzero;fill:rgb(0%,0%,0%);fill-opacity:1;" />
</g>
</svg>